<svg width="837" height="872" viewBox="0 0 837 872" fill="none" xmlns="http://www.w3.org/2000/svg">
<path d="M46.2359 693.361C46.2359 701.441 37.6959 707.974 27.1612 707.974H20.0092C9.47456 707.974 0.93457 701.441 0.93457 693.361V441.867C0.93457 433.787 9.47456 427.24 20.0092 427.24H27.1612C37.6959 427.24 46.2359 433.787 46.2359 441.867V693.361Z" fill="#BCBCBC"/>
<path d="M836.223 693.361C836.223 701.441 827.683 707.974 817.149 707.974H809.998C799.463 707.974 790.922 701.441 790.922 693.361V441.867C790.922 433.787 799.463 427.24 809.998 427.24H817.149C827.683 427.24 836.223 433.787 836.223 441.867V693.361Z" fill="#BCBCBC"/>
<path d="M156.35 24.5738C156.35 37.8138 145.622 48.5471 132.387 48.5471C119.152 48.5471 108.423 37.8138 108.423 24.5738C108.423 11.3471 119.152 0.613789 132.387 0.613789C145.622 0.613789 156.35 11.3471 156.35 24.5738Z" fill="#BCBCBC"/>
<path d="M146.204 214.654H118.569L125.28 24.5738H138.277L146.204 214.654Z" fill="#BCBCBC"/>
<path d="M181.732 320.654C181.732 328.734 174.368 335.281 165.283 335.281H99.4907C90.4054 335.281 83.04 328.734 83.04 320.654V191.974C83.04 183.894 90.4054 177.347 99.4907 177.347H165.283C174.368 177.347 181.732 183.894 181.732 191.974V320.654Z" fill="#BCBCBC"/>
<path d="M728.734 24.5738C728.734 37.8138 718.005 48.5471 704.77 48.5471C691.536 48.5471 680.808 37.8138 680.808 24.5738C680.808 11.3471 691.536 0.613789 704.77 0.613789C718.005 0.613789 728.734 11.3471 728.734 24.5738Z" fill="#BCBCBC"/>
<path d="M718.588 214.654H690.955L697.666 24.5738H710.662L718.588 214.654Z" fill="#BCBCBC"/>
<path d="M754.118 320.654C754.118 328.734 746.752 335.281 737.667 335.281H671.875C662.791 335.281 655.426 328.734 655.426 320.654V191.974C655.426 183.894 662.791 177.347 671.875 177.347H737.667C746.752 177.347 754.118 183.894 754.118 191.974V320.654Z" fill="#BCBCBC"/>
<path d="M810.689 424.721C803.804 287.347 630.899 177.347 418.579 177.347C206.259 177.347 33.3548 287.347 26.4695 424.721C26.3228 426.081 26.2295 427.454 26.2295 428.841V822.654C26.2295 849.841 54.7308 871.881 89.8881 871.881H418.579H747.269C782.427 871.881 810.928 849.841 810.928 822.654V428.841C810.928 427.454 810.835 426.081 810.689 424.721Z" fill="#D1D1D1"/>
<path d="M747.271 838.841H89.8881C54.7308 838.841 26.2295 824.721 26.2295 807.321V840.361C26.2295 857.774 54.7308 871.881 89.8881 871.881H418.579H747.271C782.427 871.881 810.928 857.774 810.928 840.361V807.321C810.928 824.721 782.427 838.841 747.271 838.841Z" fill="#BCBCBC"/>
<path d="M712.331 722.014V510.201C712.331 509.041 712.26 507.894 712.151 506.761C706.996 392.241 577.543 300.547 418.579 300.547C259.615 300.547 130.163 392.241 125.007 506.761C124.897 507.894 124.828 509.041 124.828 510.201V722.014H712.331Z" fill="#BCBCBC"/>
<path d="M712.331 722.014V523.387C712.331 522.307 712.26 521.227 712.151 520.174C706.996 412.774 577.543 326.801 418.579 326.801C259.615 326.801 130.163 412.774 125.007 520.174C124.897 521.227 124.828 522.307 124.828 523.387V722.014H712.331Z" fill="#3D4756"/>
<path d="M712.151 520.174C706.996 412.774 577.543 326.801 418.579 326.801C259.615 326.801 130.163 412.774 125.007 520.174C124.897 521.227 124.828 522.307 124.828 523.387V567.254C124.828 566.161 124.897 565.094 125.007 564.027C130.163 456.641 259.615 370.654 418.579 370.654C577.543 370.654 706.996 456.641 712.151 564.027C712.26 565.094 712.331 566.161 712.331 567.254V523.387C712.331 522.307 712.26 521.227 712.151 520.174Z" fill="#2D353F"/>
<path d="M531.678 484.401C495.123 434.441 418.579 489.347 418.579 489.347C418.579 489.347 342.035 434.441 305.48 484.401C237.202 577.721 418.579 652.561 418.579 652.561C418.579 652.561 599.956 577.721 531.678 484.401Z" fill="#69FF77"/>
</svg>
