<svg width="837" height="872" viewBox="0 0 837 872" fill="none" xmlns="http://www.w3.org/2000/svg">
<path d="M46.2803 693.361C46.2803 701.441 37.7337 707.974 27.2003 707.974H20.0537C9.52038 707.974 0.973633 701.441 0.973633 693.361V441.867C0.973633 433.787 9.52038 427.24 20.0537 427.24H27.2003C37.7337 427.24 46.2803 433.787 46.2803 441.867V693.361Z" fill="#BCBCBC"/>
<path d="M836.267 693.361C836.267 701.441 827.72 707.974 817.187 707.974H810.04C799.507 707.974 790.96 701.441 790.96 693.361V441.867C790.96 433.787 799.507 427.24 810.04 427.24H817.187C827.72 427.24 836.267 433.787 836.267 441.867V693.361Z" fill="#BCBCBC"/>
<path d="M156.387 24.5738C156.387 37.8138 145.667 48.5471 132.427 48.5471C119.187 48.5471 108.467 37.8138 108.467 24.5738C108.467 11.3471 119.187 0.613789 132.427 0.613789C145.667 0.613789 156.387 11.3471 156.387 24.5738Z" fill="#BCBCBC"/>
<path d="M146.24 214.654H118.613L125.32 24.5738H138.32L146.24 214.654Z" fill="#BCBCBC"/>
<path d="M181.773 320.654C181.773 328.734 174.414 335.281 165.32 335.281H99.5335C90.4401 335.281 83.0801 328.734 83.0801 320.654V191.974C83.0801 183.894 90.4401 177.347 99.5335 177.347H165.32C174.414 177.347 181.773 183.894 181.773 191.974V320.654Z" fill="#BCBCBC"/>
<path d="M728.773 24.5738C728.773 37.8138 718.04 48.5471 704.813 48.5471C691.573 48.5471 680.854 37.8138 680.854 24.5738C680.854 11.3471 691.573 0.613789 704.813 0.613789C718.04 0.613789 728.773 11.3471 728.773 24.5738Z" fill="#BCBCBC"/>
<path d="M718.627 214.654H691L697.707 24.5738H710.707L718.627 214.654Z" fill="#BCBCBC"/>
<path d="M754.16 320.654C754.16 328.734 746.787 335.281 737.707 335.281H671.92C662.827 335.281 655.467 328.734 655.467 320.654V191.974C655.467 183.894 662.827 177.347 671.92 177.347H737.707C746.787 177.347 754.16 183.894 754.16 191.974V320.654Z" fill="#BCBCBC"/>
<path d="M810.733 424.721C803.84 287.347 630.933 177.347 418.613 177.347C206.293 177.347 33.3866 287.347 26.5066 424.721C26.3599 426.081 26.2666 427.454 26.2666 428.841V822.654C26.2666 849.841 54.7733 871.881 89.9333 871.881H418.613H747.307C782.467 871.881 810.973 849.841 810.973 822.654V428.841C810.973 427.454 810.88 426.081 810.733 424.721Z" fill="#D1D1D1"/>
<path d="M747.307 838.841H89.9333C54.7733 838.841 26.2666 824.721 26.2666 807.321V840.361C26.2666 857.774 54.7733 871.881 89.9333 871.881H418.613H747.307C782.467 871.881 810.973 857.774 810.973 840.361V807.321C810.973 824.721 782.467 838.841 747.307 838.841Z" fill="#BCBCBC"/>
<path d="M712.373 722.014V510.201C712.373 509.041 712.293 507.894 712.186 506.761C707.04 392.241 577.586 300.547 418.613 300.547C259.653 300.547 130.2 392.241 125.04 506.761C124.933 507.894 124.866 509.041 124.866 510.201V722.014H712.373Z" fill="#BCBCBC"/>
<path d="M712.373 722.014V523.387C712.373 522.307 712.293 521.227 712.186 520.174C707.04 412.774 577.586 326.801 418.613 326.801C259.653 326.801 130.2 412.774 125.04 520.174C124.933 521.227 124.866 522.307 124.866 523.387V722.014H712.373Z" fill="#3D4756"/>
<path d="M712.186 520.174C707.04 412.774 577.586 326.801 418.613 326.801C259.653 326.801 130.2 412.774 125.04 520.174C124.933 521.227 124.866 522.307 124.866 523.387V567.254C124.866 566.161 124.933 565.094 125.04 564.027C130.2 456.641 259.653 370.654 418.613 370.654C577.586 370.654 707.04 456.641 712.186 564.027C712.293 565.094 712.373 566.161 712.373 567.254V523.387C712.373 522.307 712.293 521.227 712.186 520.174Z" fill="#2D353F"/>
<path d="M541.307 645.441H274.667L274.84 638.534V478.094L402.587 558.321L418.613 568.387L434.654 558.321L562.4 478.094V638.534L562.667 645.441H541.307ZM541.307 471.187L418.613 548.241L295.933 471.187H541.307ZM579.44 462.441C579.44 462.267 579.44 462.107 579.413 461.934C579.413 461.814 579.4 461.694 579.387 461.587C579.36 461.427 579.333 461.267 579.307 461.107C579.28 460.974 579.254 460.854 579.227 460.721C579.2 460.587 579.16 460.441 579.12 460.307C579.08 460.161 579.04 460.027 578.987 459.894C578.947 459.774 578.907 459.654 578.854 459.521C578.8 459.374 578.733 459.227 578.667 459.081C578.613 458.974 578.56 458.867 578.507 458.774C578.427 458.614 578.347 458.467 578.254 458.321C578.227 458.254 578.187 458.187 578.147 458.134C578.133 458.094 578.107 458.067 578.08 458.027C577.987 457.894 577.893 457.761 577.8 457.627C577.72 457.521 577.653 457.427 577.573 457.321C577.493 457.214 577.4 457.121 577.307 457.014C577.213 456.907 577.107 456.787 577.013 456.681C576.933 456.601 576.84 456.534 576.76 456.454C576.64 456.334 576.52 456.227 576.4 456.121C576.32 456.054 576.227 455.987 576.147 455.921C576.013 455.827 575.88 455.721 575.747 455.627C575.64 455.561 575.534 455.494 575.427 455.427C575.307 455.347 575.187 455.267 575.054 455.201C574.92 455.121 574.773 455.067 574.64 455.001C574.533 454.947 574.44 454.894 574.333 454.841C574.173 454.774 574.013 454.721 573.84 454.654C573.747 454.627 573.654 454.587 573.56 454.561C573.4 454.507 573.24 454.454 573.067 454.414C572.973 454.387 572.867 454.361 572.76 454.334C572.614 454.307 572.467 454.281 572.307 454.254C572.173 454.241 572.054 454.214 571.92 454.201C571.787 454.187 571.667 454.174 571.533 454.161C571.373 454.147 571.214 454.147 571.054 454.134C571.014 454.134 570.973 454.134 570.933 454.134H266.307C266.267 454.134 266.227 454.134 266.187 454.134C266.027 454.147 265.853 454.147 265.693 454.161C265.573 454.174 265.44 454.187 265.32 454.201C265.187 454.214 265.053 454.241 264.907 454.254C264.76 454.281 264.627 454.307 264.48 454.334C264.373 454.361 264.253 454.387 264.147 454.427C263.987 454.467 263.827 454.507 263.68 454.547C263.573 454.587 263.467 454.627 263.373 454.667C263.213 454.721 263.067 454.774 262.907 454.841C262.8 454.894 262.68 454.947 262.573 455.001C262.44 455.067 262.307 455.134 262.187 455.201C262.054 455.281 261.92 455.361 261.787 455.441C261.694 455.507 261.587 455.561 261.493 455.627C261.347 455.721 261.213 455.827 261.08 455.934C261 456.001 260.92 456.054 260.84 456.121C260.72 456.227 260.587 456.347 260.467 456.467C260.387 456.534 260.307 456.614 260.227 456.681C260.12 456.787 260.027 456.907 259.92 457.014C259.84 457.121 259.747 457.214 259.667 457.321C259.587 457.427 259.507 457.521 259.44 457.627C259.333 457.761 259.24 457.894 259.16 458.027C259.133 458.067 259.107 458.094 259.08 458.134C259.04 458.187 259.013 458.254 258.973 458.321C258.893 458.467 258.8 458.614 258.72 458.774C258.667 458.867 258.627 458.974 258.573 459.081C258.507 459.227 258.44 459.374 258.387 459.521C258.334 459.654 258.294 459.774 258.254 459.894C258.2 460.027 258.16 460.161 258.12 460.307C258.08 460.441 258.04 460.587 258.013 460.721C257.973 460.854 257.947 460.974 257.933 461.107C257.893 461.267 257.88 461.427 257.854 461.587C257.84 461.694 257.827 461.814 257.813 461.934C257.8 462.107 257.8 462.267 257.787 462.441C257.787 462.521 257.773 462.587 257.773 462.667V653.961C257.773 654.041 257.787 654.107 257.787 654.187C257.8 654.361 257.8 654.534 257.813 654.694C257.827 654.814 257.84 654.934 257.854 655.041C257.88 655.201 257.893 655.361 257.933 655.521C257.947 655.654 257.973 655.774 258.013 655.907C258.04 656.041 258.08 656.187 258.12 656.321C258.16 656.467 258.2 656.601 258.254 656.734C258.294 656.854 258.334 656.987 258.387 657.107C258.44 657.254 258.507 657.401 258.573 657.547C258.627 657.654 258.667 657.761 258.72 657.854C258.8 658.014 258.893 658.161 258.973 658.307C259.013 658.374 259.04 658.441 259.08 658.507C259.107 658.534 259.12 658.547 259.147 658.574C259.32 658.867 259.52 659.134 259.733 659.401C259.76 659.427 259.787 659.454 259.813 659.494C260 659.707 260.2 659.907 260.4 660.107C260.493 660.187 260.573 660.267 260.667 660.347C260.827 660.494 260.987 660.627 261.16 660.761C261.253 660.827 261.347 660.894 261.44 660.961C261.96 661.334 262.533 661.641 263.133 661.881C263.213 661.907 263.28 661.934 263.36 661.961C263.6 662.041 263.84 662.121 264.08 662.187C264.173 662.214 264.253 662.241 264.347 662.254C264.587 662.307 264.827 662.361 265.067 662.387C265.16 662.401 265.24 662.427 265.333 662.441C265.64 662.467 265.934 662.494 266.254 662.494C266.267 662.494 266.294 662.494 266.32 662.494H266.333H570.907H570.92C570.947 662.494 570.96 662.494 570.987 662.494C571.294 662.494 571.6 662.467 571.907 662.441C571.987 662.427 572.08 662.401 572.16 662.387C572.414 662.361 572.654 662.307 572.894 662.254C572.987 662.241 573.067 662.214 573.16 662.187C573.4 662.121 573.64 662.041 573.88 661.961C573.947 661.934 574.027 661.907 574.094 661.881C574.707 661.641 575.267 661.334 575.8 660.961C575.893 660.894 575.987 660.827 576.067 660.761C576.24 660.627 576.413 660.494 576.573 660.347C576.667 660.267 576.747 660.187 576.84 660.107C577.04 659.907 577.227 659.707 577.413 659.494C577.44 659.454 577.48 659.427 577.507 659.401C577.72 659.134 577.907 658.867 578.094 658.574C578.107 658.547 578.133 658.534 578.147 658.507C578.187 658.441 578.227 658.374 578.254 658.307C578.347 658.161 578.427 658.014 578.507 657.854C578.56 657.761 578.613 657.654 578.667 657.547C578.733 657.401 578.8 657.254 578.854 657.107C578.907 656.987 578.947 656.854 578.987 656.734C579.04 656.601 579.08 656.467 579.12 656.321C579.16 656.187 579.2 656.041 579.227 655.907C579.254 655.774 579.28 655.654 579.307 655.521C579.333 655.361 579.36 655.201 579.387 655.041C579.4 654.934 579.413 654.814 579.413 654.694C579.44 654.534 579.44 654.361 579.44 654.187C579.453 654.107 579.454 654.041 579.454 653.961V462.667C579.454 462.587 579.453 462.521 579.44 462.441Z" fill="#69FF77"/>
</svg>
