<svg width="837" height="872" viewBox="0 0 837 872" fill="none" xmlns="http://www.w3.org/2000/svg">
<path d="M46.2667 693.48C46.2667 701.56 37.7201 708.106 27.1868 708.106H20.0402C9.50684 708.106 0.959961 701.56 0.959961 693.48V441.987C0.959961 433.92 9.50684 427.373 20.0402 427.373H27.1868C37.7201 427.373 46.2667 433.92 46.2667 441.987V693.48Z" fill="#BCBCBC"/>
<path d="M836.253 693.48C836.253 701.56 827.706 708.106 817.173 708.106H810.026C799.493 708.106 790.946 701.56 790.946 693.48V441.987C790.946 433.92 799.493 427.373 810.026 427.373H817.173C827.706 427.373 836.253 433.92 836.253 441.987V693.48Z" fill="#BCBCBC"/>
<path d="M156.373 24.7066C156.373 37.9333 145.653 48.6665 132.413 48.6665C119.173 48.6665 108.453 37.9333 108.453 24.7066C108.453 11.4666 119.173 0.733173 132.413 0.733173C145.653 0.733173 156.373 11.4666 156.373 24.7066Z" fill="#BCBCBC"/>
<path d="M146.226 214.773H118.6L125.306 24.7067H138.306L146.226 214.773Z" fill="#BCBCBC"/>
<path d="M181.76 320.773C181.76 328.853 174.4 335.4 165.307 335.4H99.5198C90.4398 335.4 83.0664 328.853 83.0664 320.773V192.093C83.0664 184.013 90.4398 177.48 99.5198 177.48H165.307C174.4 177.48 181.76 184.013 181.76 192.093V320.773Z" fill="#BCBCBC"/>
<path d="M728.76 24.7066C728.76 37.9333 718.04 48.6665 704.8 48.6665C691.56 48.6665 680.84 37.9333 680.84 24.7066C680.84 11.4666 691.56 0.733173 704.8 0.733173C718.04 0.733173 728.76 11.4666 728.76 24.7066Z" fill="#BCBCBC"/>
<path d="M718.613 214.773H690.986L697.693 24.7067H710.693L718.613 214.773Z" fill="#BCBCBC"/>
<path d="M754.146 320.773C754.146 328.853 746.786 335.4 737.693 335.4H671.907C662.813 335.4 655.453 328.853 655.453 320.773V192.093C655.453 184.013 662.813 177.48 671.907 177.48H737.693C746.786 177.48 754.146 184.013 754.146 192.093V320.773Z" fill="#BCBCBC"/>
<path d="M810.721 424.841C803.827 287.467 630.934 177.481 418.614 177.481C206.28 177.481 33.3871 287.467 26.4937 424.841C26.3471 426.201 26.2539 427.574 26.2539 428.961V822.774C26.2539 849.961 54.7606 872.001 89.9206 872.001H418.614H747.294C782.454 872.001 810.96 849.961 810.96 822.774V428.961C810.96 427.574 810.867 426.201 810.721 424.841Z" fill="#D1D1D1"/>
<path d="M747.294 838.961H89.9206C54.7606 838.961 26.2539 824.854 26.2539 807.441V840.481C26.2539 857.894 54.7606 872.001 89.9206 872.001H418.614H747.294C782.454 872.001 810.96 857.894 810.96 840.481V807.441C810.96 824.854 782.454 838.961 747.294 838.961Z" fill="#BCBCBC"/>
<path d="M712.36 722.133V510.32C712.36 509.16 712.294 508.013 712.174 506.88C707.027 392.36 577.573 300.667 418.613 300.667C259.64 300.667 130.187 392.36 125.04 506.88C124.92 508.013 124.854 509.16 124.854 510.32V722.133H712.36Z" fill="#BCBCBC"/>
<path d="M712.36 722.133V523.506C712.36 522.426 712.294 521.347 712.174 520.293C707.027 412.893 577.573 326.92 418.613 326.92C259.64 326.92 130.187 412.893 125.04 520.293C124.92 521.347 124.854 522.426 124.854 523.506V722.133H712.36Z" fill="#3D4756"/>
<path d="M712.174 520.293C707.027 412.893 577.573 326.92 418.613 326.92C259.64 326.92 130.187 412.893 125.04 520.293C124.92 521.347 124.854 522.427 124.854 523.507V567.373C124.854 566.28 124.92 565.213 125.04 564.146C130.187 456.76 259.64 370.787 418.613 370.787C577.573 370.787 707.027 456.76 712.174 564.146C712.294 565.213 712.36 566.28 712.36 567.373V523.507C712.36 522.427 712.294 521.347 712.174 520.293Z" fill="#2D353F"/>
<path d="M418.612 604.413C434.759 604.413 447.852 621.053 447.853 641.573C447.853 662.106 434.759 678.747 418.612 678.747C402.453 678.747 389.359 662.106 389.359 641.573C389.359 621.053 402.453 604.413 418.612 604.413ZM244.347 453.88C273.253 453.88 296.773 477.4 296.773 506.306C296.773 535.213 273.253 558.72 244.347 558.72C215.44 558.72 191.92 535.213 191.92 506.306C191.92 477.4 215.44 453.88 244.347 453.88ZM592.866 453.88C621.773 453.88 645.293 477.4 645.293 506.306C645.293 535.213 621.773 558.72 592.866 558.72C563.96 558.72 540.439 535.213 540.439 506.306C540.44 477.4 563.96 453.88 592.866 453.88ZM244.347 462.04C219.947 462.04 200.08 481.893 200.08 506.306C200.08 530.706 219.947 550.56 244.347 550.56C268.747 550.56 288.613 530.706 288.613 506.306C288.613 481.893 268.747 462.04 244.347 462.04ZM592.866 462.04C568.466 462.04 548.612 481.893 548.612 506.306C548.612 530.706 568.466 550.56 592.866 550.56C617.279 550.56 637.133 530.706 637.133 506.306C637.133 481.893 617.279 462.04 592.866 462.04ZM244.347 474.679C261.813 474.68 275.973 488.84 275.973 506.306C275.973 523.773 261.813 537.933 244.347 537.933C226.88 537.933 212.72 523.773 212.72 506.306C212.72 488.84 226.88 474.679 244.347 474.679ZM592.867 474.679C610.334 474.68 624.493 488.84 624.493 506.306C624.493 523.773 610.334 537.933 592.867 537.933C575.401 537.933 561.24 523.773 561.24 506.306C561.24 488.84 575.401 474.679 592.867 474.679Z" fill="#69FF77"/>
</svg>
