<svg width="837" height="874" viewBox="0 0 837 874" fill="none" xmlns="http://www.w3.org/2000/svg">
<path d="M46.1464 693.267C46.1197 701.347 37.5596 707.867 27.0263 707.84L19.8797 707.814C9.34637 707.787 0.826526 701.214 0.839859 693.134L1.57319 441.654C1.59986 433.574 10.1597 427.054 20.693 427.08L27.8531 427.107C38.3865 427.134 46.9064 433.707 46.8797 441.787L46.1464 693.267Z" fill="#BCBCBC"/>
<path d="M836.133 695.574C836.106 703.654 827.547 710.174 817.013 710.134L809.866 710.121C799.333 710.094 790.8 703.521 790.826 695.441L791.56 443.947C791.586 435.881 800.146 429.36 810.68 429.387L817.826 429.4C828.36 429.44 836.893 436.014 836.866 444.081L836.133 695.574Z" fill="#BCBCBC"/>
<path d="M158.213 24.8138C158.173 38.0538 147.413 48.7472 134.173 48.7072C120.946 48.6672 110.239 37.9071 110.279 24.6805C110.319 11.4405 121.08 0.747247 134.32 0.787247C147.546 0.827247 158.253 11.5871 158.213 24.8138Z" fill="#BCBCBC"/>
<path d="M147.507 214.854L119.88 214.774L127.133 24.7206L140.133 24.7606L147.507 214.854Z" fill="#BCBCBC"/>
<path d="M182.733 320.961C182.707 329.041 175.32 335.561 166.24 335.534L100.44 335.347C91.3601 335.321 84.0134 328.747 84.0401 320.681L84.4133 192.001C84.44 183.921 91.8268 177.401 100.907 177.427L166.693 177.614C175.787 177.641 183.133 184.214 183.107 192.281L182.733 320.961Z" fill="#BCBCBC"/>
<path d="M730.586 26.4806C730.546 39.7206 719.786 50.4139 706.559 50.3739C693.319 50.3339 682.626 39.5739 682.666 26.3472C682.706 13.1072 693.466 2.41399 706.693 2.45399C719.933 2.49399 730.626 13.2539 730.586 26.4806Z" fill="#BCBCBC"/>
<path d="M719.894 216.534L692.254 216.441L699.521 26.4006L712.521 26.4273L719.894 216.534Z" fill="#BCBCBC"/>
<path d="M755.107 322.627C755.093 330.707 747.706 337.227 738.613 337.2L672.826 337.014C663.746 336.987 656.4 330.414 656.413 322.347L656.8 193.667C656.813 185.587 664.2 179.067 673.28 179.094L739.08 179.281C748.16 179.307 755.506 185.881 755.48 193.947L755.107 322.627Z" fill="#BCBCBC"/>
<path d="M811.387 426.867C804.893 289.467 632.307 178.974 419.987 178.347C207.667 177.734 34.4533 287.227 27.1599 424.587C27.0133 425.947 26.9201 427.307 26.9068 428.707L25.7599 822.507C25.6799 849.694 54.12 871.827 89.28 871.92L417.973 872.88L746.653 873.84C781.813 873.947 810.387 851.987 810.453 824.8L811.613 430.987C811.613 429.6 811.52 428.227 811.387 426.867Z" fill="#D1D1D1"/>
<path d="M746.76 840.8L418.067 839.84L89.3737 838.88C54.2137 838.774 25.7603 824.587 25.8136 807.174L25.7071 840.214C25.6671 857.627 54.1202 871.827 89.2802 871.92L417.974 872.88L746.654 873.84C781.814 873.947 810.36 859.907 810.414 842.507L810.507 809.454C810.454 826.867 781.907 840.894 746.76 840.8Z" fill="#BCBCBC"/>
<path d="M712.16 723.867L712.773 512.054C712.773 510.894 712.707 509.747 712.6 508.614C707.787 394.081 578.6 302.014 419.627 301.547C260.667 301.094 130.947 392.401 125.467 506.907C125.347 508.041 125.28 509.187 125.267 510.347L124.653 722.161L712.16 723.867Z" fill="#BCBCBC"/>
<path d="M712.16 724.081L712.733 525.454C712.733 524.374 712.667 523.294 712.56 522.241C707.72 414.827 578.52 328.481 419.56 328.014C260.586 327.547 130.893 413.147 125.426 520.521C125.306 521.587 125.24 522.667 125.226 523.747L124.653 722.374L712.16 724.081Z" fill="#3D4756"/>
<path d="M712.56 522.027C707.72 414.614 578.52 328.267 419.56 327.801C260.6 327.334 130.893 412.934 125.426 520.307C125.306 521.374 125.24 522.441 125.24 523.534L125.106 567.401C125.106 566.307 125.186 565.241 125.293 564.174C130.76 456.801 260.466 371.201 419.426 371.667C578.386 372.121 707.6 458.481 712.44 565.881C712.546 566.947 712.613 568.027 712.6 569.107L712.733 525.241C712.733 524.161 712.666 523.081 712.56 522.027Z" fill="#2D353F"/>
<path d="M427.946 453.494C428.653 453.494 429.307 453.574 429.92 453.707C430.52 453.587 431.173 453.508 431.88 453.508C466.787 453.388 500.827 473.174 501.8 505.694C502.253 520.801 495.813 535.254 484.894 546.881C475.989 556.366 465.225 564.466 462.749 576.435C466.077 578.881 468.235 582.825 468.227 587.267L468.04 648.428C468.027 655.814 462.013 661.787 454.626 661.761L444.322 661.731L444.319 662.881C444.293 670.267 438.293 676.24 430.906 676.214L426.44 676.201C419.053 676.187 413.093 670.173 413.106 662.787L413.109 661.642L402.813 661.614C395.426 661.587 389.453 655.587 389.48 648.201L389.653 587.027C389.662 582.141 392.297 577.879 396.218 575.557C393.426 563.412 382.077 555.15 373.24 545.281C362.947 533.774 356.2 518.481 357.84 503.721C361.387 471.987 392.64 453.161 427.946 453.494ZM429.88 466.64C429.267 466.76 428.613 466.827 427.906 466.827C412.026 466.68 395.64 470.48 384.72 481.094C375.506 490.027 370.96 502.694 373.667 514.6C376.84 528.467 385.88 537.627 396.08 548.094C403.72 555.922 409.508 564.074 411.484 573.718L447.648 573.82C449.798 563.661 456.166 555.158 464.4 547.094C474.627 537.067 483.934 527.107 486.12 513.334C490.627 484.841 461.973 466.734 431.84 466.841C431.133 466.841 430.48 466.76 429.88 466.64ZM553.4 501.187C556.76 501.201 559.48 503.934 559.48 507.307C559.466 510.667 556.733 513.387 553.36 513.374L525.333 513.294C521.973 513.28 519.253 510.547 519.267 507.187C519.28 503.814 522.013 501.094 525.373 501.107L553.4 501.187ZM333.666 499.227C336.986 499.241 339.666 501.947 339.666 505.267C339.653 508.587 336.946 511.281 333.626 511.267L305.946 511.187C302.626 511.174 299.933 508.481 299.946 505.147C299.96 501.827 302.654 499.147 305.974 499.147L333.666 499.227ZM536.107 444.468C539.014 442.854 542.667 443.894 544.294 446.801C545.907 449.707 544.867 453.36 541.974 454.987L517.787 468.468C514.894 470.081 511.227 469.04 509.601 466.147C507.987 463.241 509.027 459.574 511.934 457.961L536.107 444.468ZM312.293 446.121C313.92 443.228 317.599 442.214 320.492 443.841L344.586 457.468C347.479 459.108 348.493 462.774 346.866 465.668C345.226 468.561 341.559 469.574 338.666 467.947L314.56 454.321C311.666 452.681 310.653 449.014 312.293 446.121ZM482.44 404.548C483.879 401.548 487.466 400.28 490.466 401.707C493.466 403.133 494.733 406.721 493.307 409.721L481.399 434.721C479.973 437.721 476.386 438.987 473.386 437.56C470.386 436.134 469.107 432.534 470.533 429.534L482.44 404.548ZM366.373 401.347C369.386 399.934 372.96 401.227 374.373 404.227L386.147 429.294C387.547 432.294 386.253 435.88 383.253 437.294C380.24 438.707 376.654 437.414 375.24 434.4L363.48 409.347C362.066 406.334 363.36 402.761 366.373 401.347ZM428.44 393.6C431.773 393.614 434.453 396.307 434.44 399.64L434.359 427.321C434.359 430.641 431.653 433.321 428.333 433.321C425 433.308 422.32 430.601 422.333 427.281L422.413 399.6C422.413 396.281 425.12 393.587 428.44 393.6Z" fill="#69FF77"/>
<path d="M478.827 599.467L386.16 599.201L386.187 593.201L478.854 593.467L478.827 599.467Z" fill="#3D4756"/>
<path d="M483.827 622.814L391.16 622.547L391.174 616.547L483.84 616.814L483.827 622.814Z" fill="#3D4756"/>
<path d="M479.04 646.134L386.373 645.867L386.4 639.867L479.066 640.134L479.04 646.134Z" fill="#3D4756"/>
</svg>
