<svg width="836" height="872" viewBox="0 0 836 872" fill="none" xmlns="http://www.w3.org/2000/svg">
<path d="M45.7072 693.48C45.7072 701.56 37.1603 708.106 26.627 708.106H19.4803C8.947 708.106 0.400391 701.56 0.400391 693.48V441.987C0.400391 433.92 8.947 427.373 19.4803 427.373H26.627C37.1603 427.373 45.7072 433.92 45.7072 441.987V693.48Z" fill="#BCBCBC"/>
<path d="M835.693 693.48C835.693 701.56 827.147 708.106 816.613 708.106H809.467C798.933 708.106 790.387 701.56 790.387 693.48V441.987C790.387 433.92 798.933 427.373 809.467 427.373H816.613C827.147 427.373 835.693 433.92 835.693 441.987V693.48Z" fill="#BCBCBC"/>
<path d="M155.826 24.7066C155.826 37.9333 145.093 48.6665 131.853 48.6665C118.626 48.6665 107.893 37.9333 107.893 24.7066C107.893 11.4666 118.626 0.733173 131.853 0.733173C145.093 0.733173 155.826 11.4666 155.826 24.7066Z" fill="#BCBCBC"/>
<path d="M145.667 214.773H118.04L124.747 24.7067H137.747L145.667 214.773Z" fill="#BCBCBC"/>
<path d="M181.2 320.773C181.2 328.853 173.84 335.4 164.747 335.4H98.96C89.88 335.4 82.5068 328.853 82.5068 320.773V192.093C82.5068 184.013 89.88 177.48 98.96 177.48H164.747C173.84 177.48 181.2 184.013 181.2 192.093V320.773Z" fill="#BCBCBC"/>
<path d="M728.199 24.7066C728.199 37.9333 717.479 48.6665 704.239 48.6665C690.999 48.6665 680.279 37.9333 680.279 24.7066C680.279 11.4666 690.999 0.733173 704.239 0.733173C717.479 0.733173 728.199 11.4666 728.199 24.7066Z" fill="#BCBCBC"/>
<path d="M718.054 214.773H690.427L697.134 24.7067H710.134L718.054 214.773Z" fill="#BCBCBC"/>
<path d="M753.586 320.773C753.586 328.853 746.226 335.4 737.133 335.4H671.346C662.266 335.4 654.893 328.853 654.893 320.773V192.093C654.893 184.013 662.266 177.48 671.346 177.48H737.133C746.226 177.48 753.586 184.013 753.586 192.093V320.773Z" fill="#BCBCBC"/>
<path d="M810.16 424.841C803.28 287.467 630.373 177.481 418.053 177.481C205.734 177.481 32.8268 287.467 25.9335 424.841C25.7868 426.201 25.6934 427.574 25.6934 428.961V822.774C25.6934 849.961 54.2 872.001 89.36 872.001H418.053H746.733C781.893 872.001 810.4 849.961 810.4 822.774V428.961C810.4 427.574 810.307 426.201 810.16 424.841Z" fill="#D1D1D1"/>
<path d="M746.733 838.961H89.36C54.2 838.961 25.6934 824.854 25.6934 807.441V840.481C25.6934 857.894 54.2 872.001 89.36 872.001H418.053H746.733C781.893 872.001 810.4 857.894 810.4 840.481V807.441C810.4 824.854 781.893 838.961 746.733 838.961Z" fill="#BCBCBC"/>
<path d="M711.8 722.133V510.32C711.8 509.16 711.733 508.013 711.613 506.88C706.466 392.36 577.013 300.667 418.053 300.667C259.08 300.667 129.626 392.36 124.48 506.88C124.373 508.013 124.293 509.16 124.293 510.32V722.133H711.8Z" fill="#BCBCBC"/>
<path d="M711.8 722.133V523.506C711.8 522.426 711.733 521.347 711.613 520.293C706.466 412.893 577.013 326.92 418.053 326.92C259.08 326.92 129.626 412.893 124.48 520.293C124.373 521.347 124.293 522.426 124.293 523.506V722.133H711.8Z" fill="#3D4756"/>
<path d="M711.626 520.293C706.466 412.893 577.013 326.92 418.053 326.92C259.08 326.92 129.626 412.893 124.48 520.293C124.373 521.347 124.293 522.427 124.293 523.507V567.373C124.293 566.28 124.373 565.213 124.48 564.146C129.626 456.76 259.08 370.787 418.053 370.787C577.013 370.787 706.466 456.76 711.626 564.146C711.733 565.213 711.8 566.28 711.8 567.373V523.507C711.8 522.427 711.733 521.347 711.626 520.293Z" fill="#2D353F"/>
<path d="M530.76 594.053C530.76 640.827 480.293 678.747 418.054 678.747C355.8 678.747 305.333 640.827 305.333 594.053H530.76ZM269.787 472.813C325.36 472.813 326.561 520.987 326.561 521.467C326.614 525.506 323.374 528.813 319.334 528.867H319.254C315.254 528.867 311.987 525.653 311.947 521.639C311.933 521.561 311.673 512.627 306.294 504.08C299.361 493.04 287.067 487.44 269.773 487.44H269.427C232.11 487.6 226.974 518.874 226.773 520.213C226.173 524.199 222.441 526.946 218.454 526.346C214.454 525.746 211.707 522.026 212.307 518.026C214.653 502.466 229.587 472.987 269.36 472.813H269.787ZM567.094 472.813C622.667 472.813 623.867 520.987 623.867 521.467C623.92 525.506 620.681 528.814 616.641 528.867H616.561C612.561 528.867 609.294 525.653 609.254 521.639C609.253 521.555 608.978 512.625 603.601 504.08C596.667 493.04 584.373 487.44 567.08 487.44H566.733C529.417 487.6 524.281 518.874 524.08 520.213C523.48 524.199 519.747 526.946 515.761 526.346C511.761 525.746 509.013 522.026 509.613 518.026C511.96 502.466 526.894 472.987 566.667 472.813H567.094Z" fill="#69FF77"/>
</svg>
