<svg width="836" height="872" viewBox="0 0 836 872" fill="none" xmlns="http://www.w3.org/2000/svg">
<path d="M45.5881 693.48C45.5881 701.56 37.0481 708.106 26.5134 708.106H19.3627C8.82808 708.106 0.288086 701.56 0.288086 693.48V441.987C0.288086 433.92 8.82808 427.373 19.3627 427.373H26.5134C37.0481 427.373 45.5881 433.92 45.5881 441.987V693.48Z" fill="#BCBCBC"/>
<path d="M835.574 693.48C835.574 701.56 827.034 708.106 816.5 708.106H809.349C798.814 708.106 790.274 701.56 790.274 693.48V441.987C790.274 433.92 798.814 427.373 809.349 427.373H816.5C827.034 427.373 835.574 433.92 835.574 441.987V693.48Z" fill="#BCBCBC"/>
<path d="M155.703 24.7066C155.703 37.9333 144.974 48.6665 131.739 48.6665C118.504 48.6665 107.776 37.9333 107.776 24.7066C107.776 11.4666 118.504 0.733173 131.739 0.733173C144.974 0.733173 155.703 11.4666 155.703 24.7066Z" fill="#BCBCBC"/>
<path d="M145.556 214.773H117.921L124.632 24.7067H137.629L145.556 214.773Z" fill="#BCBCBC"/>
<path d="M181.084 320.773C181.084 328.853 173.72 335.4 164.636 335.4H98.8429C89.7576 335.4 82.3936 328.853 82.3936 320.773V192.093C82.3936 184.013 89.7576 177.48 98.8429 177.48H164.636C173.72 177.48 181.084 184.013 181.084 192.093V320.773Z" fill="#BCBCBC"/>
<path d="M728.087 24.7066C728.087 37.9333 717.359 48.6665 704.124 48.6665C690.889 48.6665 680.16 37.9333 680.16 24.7066C680.16 11.4666 690.889 0.733173 704.124 0.733173C717.359 0.733173 728.087 11.4666 728.087 24.7066Z" fill="#BCBCBC"/>
<path d="M717.941 214.773H690.307L697.017 24.7067H710.015L717.941 214.773Z" fill="#BCBCBC"/>
<path d="M753.469 320.773C753.469 328.853 746.105 335.4 737.02 335.4H671.227C662.143 335.4 654.777 328.853 654.777 320.773V192.093C654.777 184.013 662.143 177.48 671.227 177.48H737.02C746.105 177.48 753.469 184.013 753.469 192.093V320.773Z" fill="#BCBCBC"/>
<path d="M810.042 424.841C803.156 287.467 630.251 177.481 417.931 177.481C205.611 177.481 32.707 287.467 25.8217 424.841C25.675 426.201 25.583 427.574 25.583 428.961V822.774C25.583 849.961 54.083 872.001 89.2403 872.001H417.931H746.623C781.78 872.001 810.28 849.961 810.28 822.774V428.961C810.28 427.574 810.188 426.201 810.042 424.841Z" fill="#D1D1D1"/>
<path d="M746.623 838.961H89.2403C54.083 838.961 25.583 824.854 25.583 807.441V840.481C25.583 857.894 54.083 872.001 89.2403 872.001H417.931H746.623C781.78 872.001 810.28 857.894 810.28 840.481V807.441C810.28 824.854 781.78 838.961 746.623 838.961Z" fill="#BCBCBC"/>
<path d="M711.682 722.133V510.32C711.682 509.16 711.612 508.013 711.502 506.88C706.348 392.36 576.894 300.667 417.93 300.667C258.968 300.667 129.514 392.36 124.36 506.88C124.25 508.013 124.18 509.16 124.18 510.32V722.133H711.682Z" fill="#BCBCBC"/>
<path d="M711.682 722.133V523.506C711.682 522.426 711.612 521.347 711.502 520.293C706.348 412.893 576.894 326.92 417.93 326.92C258.968 326.92 129.514 412.893 124.36 520.293C124.25 521.347 124.18 522.426 124.18 523.506V722.133H711.682Z" fill="#3D4756"/>
<path d="M711.502 520.293C706.348 412.893 576.894 326.92 417.932 326.92C258.968 326.92 129.514 412.893 124.36 520.293C124.25 521.347 124.18 522.427 124.18 523.507V567.373C124.18 566.28 124.25 565.213 124.36 564.146C129.514 456.76 258.968 370.787 417.932 370.787C576.894 370.787 706.348 456.76 711.502 564.146C711.612 565.213 711.682 566.28 711.682 567.373V523.507C711.682 522.427 711.612 521.347 711.502 520.293Z" fill="#2D353F"/>
<path d="M513.245 594.8C516.945 594.906 519.862 597.987 519.758 601.693C519.716 603.173 518.47 638.133 494.579 657.84C470.19 677.973 435.623 681.027 415.46 681.027C398.565 681.027 367.103 677.973 342.715 657.84C318.824 638.133 317.576 603.173 317.535 601.693C317.431 597.987 320.347 594.906 324.047 594.8C327.723 594.693 330.825 597.613 330.933 601.306C330.946 601.706 332.143 631.747 351.244 647.507C369.495 662.56 403.639 668.214 418.646 667.56C434.709 667.6 467.798 662.56 486.048 647.507C505.149 631.747 506.346 601.706 506.36 601.306C506.468 597.613 509.569 594.693 513.245 594.8ZM246.641 467.867C262.287 467.867 274.97 480.547 274.97 496.2C274.97 511.84 262.287 524.52 246.641 524.52C230.997 524.52 218.313 511.84 218.312 496.2C218.312 480.547 230.997 467.867 246.641 467.867ZM606.683 467.867C622.328 467.867 635.011 480.547 635.011 496.2C635.011 511.84 622.328 524.52 606.683 524.52C591.037 524.52 578.355 511.84 578.354 496.2C578.354 480.547 591.037 467.867 606.683 467.867Z" fill="#69FF77"/>
</svg>
